999
dxfrw 0.6.3
  0
SECTION
  2
HEADER
  9
$ACADVER
  1
AC1021
  9
$DWGCODEPAGE
  3
ANSI_1252
  9
$INSBASE
 10
0
 20
0
 30
0
  9
$EXTMIN
 10
-334.0516822041373
 20
-433.2064228486414
 30
0
  9
$EXTMAX
 10
14.35122708499614
 20
-81.32017609809711
 30
0
  9
$LIMMIN
 10
0
 20
0
  9
$LIMMAX
 10
420
 20
297
  9
$ORTHOMODE
 70
    0
  9
$REGENMODE
 70
    1
  9
$FILLMODE
 70
    1
  9
$QTEXTMODE
 70
    0
  9
$MIRRTEXT
 70
    0
  9
$LTSCALE
 40
1
  9
$ATTMODE
 70
    0
  9
$TEXTSIZE
 40
2.5
  9
$TRACEWID
 40
15.68
  9
$TEXTSTYLE
  7
STANDARD
  9
$CLAYER
  8
0
  9
$CELTYPE
  6
BYLAYER
  9
$CECOLOR
 62
  256
  9
$CELTSCALE
 40
1
  9
$DISPSILH
 70
    0
  9
$DIMSCALE
 40
2.5
  9
$DIMASZ
 40
0.25
  9
$DIMEXO
 40
0.0625
  9
$DIMDLI
 40
3.75
  9
$DIMRND
 40
0
  9
$DIMDLE
 40
0
  9
$DIMEXE
 40
0.125
  9
$DIMTP
 40
0
  9
$DIMTM
 40
0
  9
$DIMTXT
 40
0.25
  9
$DIMCEN
 40
2.5
  9
$DIMTSZ
 40
0
  9
$DIMTOL
 70
    0
  9
$DIMLIM
 70
    0
  9
$DIMTIH
 70
    0
  9
$DIMTOH
 70
    0
  9
$DIMSE1
 70
    0
  9
$DIMSE2
 70
    0
  9
$DIMTAD
 70
    1
  9
$DIMZIN
 70
    8
  9
$DIMBLK
  1

  9
$DIMASO
 70
    1
  9
$DIMSHO
 70
    1
  9
$DIMPOST
  1

  9
$DIMAPOST
  1

  9
$DIMALT
 70
    0
  9
$DIMALTD
 70
    3
  9
$DIMALTF
 40
0.03937
  9
$DIMLFAC
 40
1
  9
$DIMTOFL
 70
    1
  9
$DIMTVP
 40
0
  9
$DIMTIX
 70
    0
  9
$DIMSOXD
 70
    0
  9
$DIMSAH
 70
    0
  9
$DIMBLK1
  1

  9
$DIMBLK2
  1

  9
$DIMSTYLE
  2
Standard
  9
$DIMCLRD
 70
    0
  9
$DIMCLRE
 70
    0
  9
$DIMCLRT
 70
    0
  9
$DIMTFAC
 40
1
  9
$DIMGAP
 40
0.0625
  9
$DIMJUST
 70
    0
  9
$DIMSD1
 70
    0
  9
$DIMSD2
 70
    0
  9
$DIMTOLJ
 70
    0
  9
$DIMTZIN
 70
    8
  9
$DIMALTZ
 70
    0
  9
$DIMALTTZ
 70
    0
  9
$DIMUPT
 70
    0
  9
$DIMDEC
 70
    2
  9
$DIMTDEC
 70
    2
  9
$DIMALTU
 70
    2
  9
$DIMALTTD
 70
    3
  9
$DIMTXSTY
  7
STANDARD
  9
$DIMAUNIT
 70
    0
  9
$DIMADEC
 70
    0
  9
$DIMALTRND
 40
0
  9
$DIMAZIN
 70
    0
  9
$DIMDSEP
 70
   44
  9
$DIMATFIT
 70
    3
  9
$DIMFRAC
 70
    0
  9
$DIMLDRBLK
  1
STANDARD
  9
$DIMLUNIT
 70
    2
  9
$DIMLWD
 70
   -2
  9
$DIMLWE
 70
   -2
  9
$DIMTMOVE
 70
    0
  9
$DIMFXL
 40
1
  9
$DIMFXLON
 70
    0
  9
$DIMJOGANG
 40
0.7854
  9
$DIMTFILL
 70
    0
  9
$DIMTFILLCLR
 70
    0
  9
$DIMARCSYM
 70
    0
  9
$DIMLTYPE
  6

  9
$DIMLTEX1
  6

  9
$DIMLTEX2
  6

  9
$LUNITS
 70
    2
  9
$LUPREC
 70
    4
  9
$SKETCHINC
 40
1
  9
$FILLETRAD
 40
0
  9
$AUNITS
 70
    0
  9
$AUPREC
 70
    2
  9
$MENU
  1
.
  9
$ELEVATION
 40
0
  9
$PELEVATION
 40
0
  9
$THICKNESS
 40
0
  9
$LIMCHECK
 70
    0
  9
$CHAMFERA
 40
0
  9
$CHAMFERB
 40
0
  9
$CHAMFERC
 40
0
  9
$CHAMFERD
 40
0
  9
$SKPOLY
 70
    0
  9
$USRTIMER
 70
    1
  9
$ANGBASE
 50
0
  9
$ANGDIR
 70
    0
  9
$PDMODE
 70
   34
  9
$PDSIZE
 40
0
  9
$PLINEWID
 40
0
  9
$SPLFRAME
 70
    0
  9
$SPLINETYPE
 70
    2
  9
$SPLINESEGS
 70
    8
  9
$HANDSEED
  5
20000
  9
$SURFTAB1
 70
    6
  9
$SURFTAB2
 70
    6
  9
$SURFTYPE
 70
    6
  9
$SURFU
 70
    6
  9
$SURFV
 70
    6
  9
$UCSBASE
  2

  9
$UCSNAME
  2

  9
$UCSORG
 10
0
 20
0
 30
0
  9
$UCSXDIR
 10
1
 20
0
 30
0
  9
$UCSYDIR
 10
0
 20
1
 30
0
  9
$UCSORTHOREF
  2

  9
$UCSORTHOVIEW
 70
    0
  9
$UCSORGTOP
 10
0
 20
0
 30
0
  9
$UCSORGBOTTOM
 10
0
 20
0
 30
0
  9
$UCSORGLEFT
 10
0
 20
0
 30
0
  9
$UCSORGRIGHT
 10
0
 20
0
 30
0
  9
$UCSORGFRONT
 10
0
 20
0
 30
0
  9
$UCSORGBACK
 10
0
 20
0
 30
0
  9
$PUCSBASE
  2

  9
$PUCSNAME
  2

  9
$PUCSORG
 10
0
 20
0
 30
0
  9
$PUCSXDIR
 10
1
 20
0
 30
0
  9
$PUCSYDIR
 10
0
 20
1
 30
0
  9
$PUCSORTHOREF
  2

  9
$PUCSORTHOVIEW
 70
    0
  9
$PUCSORGTOP
 10
0
 20
0
 30
0
  9
$PUCSORGBOTTOM
 10
0
 20
0
 30
0
  9
$PUCSORGLEFT
 10
0
 20
0
 30
0
  9
$PUCSORGRIGHT
 10
0
 20
0
 30
0
  9
$PUCSORGFRONT
 10
0
 20
0
 30
0
  9
$PUCSORGBACK
 10
0
 20
0
 30
0
  9
$USERI1
 70
    0
  9
$USERI2
 70
    0
  9
$USERI3
 70
    0
  9
$USERI4
 70
    0
  9
$USERI5
 70
    0
  9
$USERR1
 40
0
  9
$USERR2
 40
0
  9
$USERR3
 40
0
  9
$USERR4
 40
0
  9
$USERR5
 40
0
  9
$WORLDVIEW
 70
    1
  9
$SHADEDGE
 70
    3
  9
$SHADEDIF
 70
   70
  9
$TILEMODE
 70
    1
  9
$MAXACTVP
 70
   64
  9
$PINSBASE
 10
0
 20
0
 30
0
  9
$PLIMCHECK
 70
    0
  9
$PEXTMIN
 10
0
 20
0
 30
0
  9
$PEXTMAX
 10
0
 20
0
 30
0
  9
$GRIDMODE
 70
    1
  9
$SNAPSTYLE
 70
    0
  9
$PLIMMIN
 10
0
 20
0
  9
$PLIMMAX
 10
2.1e-005
 20
2.97e-005
  9
$UNITMODE
 70
    0
  9
$VISRETAIN
 70
    1
  9
$PLINEGEN
 70
    0
  9
$PSLTSCALE
 70
    1
  9
$TREEDEPTH
 70
 3020
  9
$CMLSTYLE
  2
Standard
  9
$CMLJUST
 70
    0
  9
$CMLSCALE
 40
20
  9
$PROXYGRAPHICS
 70
    1
  9
$MEASUREMENT
 70
    1
  9
$CELWEIGHT
370
   -1
  9
$ENDCAPS
280
    0
  9
$JOINSTYLE
280
    0
  9
$LWDISPLAY
290
    0
  9
$INSUNITS
 70
    4
  9
$HYPERLINKBASE
  1

  9
$STYLESHEET
  1

  9
$XEDIT
290
    1
  9
$CEPSNTYPE
380
    0
  9
$PSTYLEMODE
290
    1
  9
$EXTNAMES
290
    1
  9
$PSVPSCALE
 40
1
  9
$OLESTARTUP
290
    0
  9
$SORTENTS
280
  127
  9
$INDEXCTL
280
    0
  9
$HIDETEXT
280
    1
  9
$XCLIPFRAME
290
    0
  9
$HALOGAP
280
    0
  9
$OBSCOLOR
 70
  257
  9
$OBSLTYPE
280
    0
  9
$INTERSECTIONDISPLAY
280
    0
  9
$INTERSECTIONCOLOR
 70
  257
  9
$DIMASSOC
280
    1
  9
$PROJECTNAME
  1

  9
$CAMERADISPLAY
290
    0
  9
$LENSLENGTH
 40
50
  9
$CAMERAHEIGHT
 40
0
  9
$STEPSPERSEC
 40
2
  9
$STEPSIZE
 40
50
  9
$3DDWFPREC
 40
2
  9
$PSOLWIDTH
 40
5
  9
$PSOLHEIGHT
 40
80
  9
$LOFTANG1
 40
1.570796326794897
  9
$LOFTANG2
 40
1.570796326794897
  9
$LOFTMAG1
 40
0
  9
$LOFTMAG2
 40
0
  9
$LOFTPARAM
 70
    7
  9
$LOFTNORMALS
280
    1
  9
$LATITUDE
 40
1
  9
$LONGITUDE
 40
1
  9
$NORTHDIRECTION
 40
0
  9
$TIMEZONE
 70
-8000
  9
$LIGHTGLYPHDISPLAY
280
    1
  9
$TILEMODELIGHTSYNCH
280
    1
  9
$SOLIDHIST
280
    1
  9
$SHOWHIST
280
    1
  9
$DWFFRAME
280
    2
  9
$DGNFRAME
280
    0
  9
$REALWORLDSCALE
290
    1
  9
$INTERFERECOLOR
 62
    1
  9
$CSHADOW
280
    0
  9
$SHADOWPLANELOCATION
 40
0
  0
ENDSEC
  0
SECTION
  2
CLASSES
  0
ENDSEC
  0
SECTION
  2
TABLES
  0
TABLE
  2
VPORT
  5
8
330
0
100
AcDbSymbolTable
 70
    1
  0
VPORT
  5
31
330
2
100
AcDbSymbolTableRecord
100
AcDbViewportTableRecord
  2
*ACTIVE
 70
    0
 10
0
 20
0
 11
1
 21
1
 12
80.5665480775657
 22
-39.09847186117159
 13
0
 23
0
 14
10
 24
10
 15
10
 25
10
 16
0
 26
0
 36
1
 17
0
 27
0
 37
0
 40
357.8102576386006
 41
1.793046357615894
 42
50
 43
0
 44
0
 50
0
 51
0
 71
    0
 72
  100
 73
    1
 74
    3
 75
    0
 76
    1
 77
    0
 78
    0
281
    0
 65
    1
110
0
120
0
130
0
111
1
121
0
131
0
112
0
122
1
132
0
 79
    0
146
0
348
10020
 60
    7
 61
    5
292
1
282
    1
141
0
142
0
 63
  250
421
3358443
  0
ENDTAB
  0
TABLE
  2
LTYPE
  5
5
330
0
100
AcDbSymbolTable
 70
    4
  0
LTYPE
  5
14
330
5
100
AcDbSymbolTableRecord
100
AcDbLinetypeTableRecord
  2
ByBlock
 70
    0
  3

 72
   65
 73
    0
 40
0
  0
LTYPE
  5
15
330
5
100
AcDbSymbolTableRecord
100
AcDbLinetypeTableRecord
  2
ByLayer
 70
    0
  3

 72
   65
 73
    0
 40
0
  0
LTYPE
  5
16
330
5
100
AcDbSymbolTableRecord
100
AcDbLinetypeTableRecord
  2
Continuous
 70
    0
  3
Solid line
 72
   65
 73
    0
 40
0
  0
LTYPE
  5
32
330
5
100
AcDbSymbolTableRecord
100
AcDbLinetypeTableRecord
  2
DOT
 70
    0
  3
Dot . . . . . . . . . . . . . . . . . . . . . .
 72
   65
 73
    2
 40
6.35
 49
0
 74
    0
 49
-6.35
 74
    0
  0
LTYPE
  5
33
330
5
100
AcDbSymbolTableRecord
100
AcDbLinetypeTableRecord
  2
DOTTINY
 70
    0
  3
Dot (.15x) .....................................
 72
   65
 73
    2
 40
0.9525
 49
0
 74
    0
 49
-0.9525
 74
    0
  0
LTYPE
  5
34
330
5
100
AcDbSymbolTableRecord
100
AcDbLinetypeTableRecord
  2
DOT2
 70
    0
  3
Dot (.5x) .....................................
 72
   65
 73
    2
 40
3.175
 49
0
 74
    0
 49
-3.175
 74
    0
  0
LTYPE
  5
35
330
5
100
AcDbSymbolTableRecord
100
AcDbLinetypeTableRecord
  2
DOTX2
 70
    0
  3
Dot (2x) .  .  .  .  .  .  .  .  .  .  .  .  .
 72
   65
 73
    2
 40
12.7
 49
0
 74
    0
 49
-12.7
 74
    0
  0
LTYPE
  5
36
330
5
100
AcDbSymbolTableRecord
100
AcDbLinetypeTableRecord
  2
DASHED
 70
    0
  3
Dashed _ _ _ _ _ _ _ _ _ _ _ _ _ _ _ _ _
 72
   65
 73
    2
 40
19.05
 49
12.7
 74
    0
 49
-6.35
 74
    0
  0
LTYPE
  5
37
330
5
100
AcDbSymbolTableRecord
100
AcDbLinetypeTableRecord
  2
DASHEDTINY
 70
    0
  3
Dashed (.15x) _ _ _ _ _ _ _ _ _ _ _ _ _ _ _ _ _
 72
   65
 73
    2
 40
2.8575
 49
1.905
 74
    0
 49
-0.9525
 74
    0
  0
LTYPE
  5
38
330
5
100
AcDbSymbolTableRecord
100
AcDbLinetypeTableRecord
  2
DASHED2
 70
    0
  3
Dashed (.5x) _ _ _ _ _ _ _ _ _ _ _ _ _ _ _ _ _
 72
   65
 73
    2
 40
9.524999999999999
 49
6.35
 74
    0
 49
-3.175
 74
    0
  0
LTYPE
  5
39
330
5
100
AcDbSymbolTableRecord
100
AcDbLinetypeTableRecord
  2
DASHEDX2
 70
    0
  3
Dashed (2x) ____  ____  ____  ____  ____  ___
 72
   65
 73
    2
 40
38.09999999999999
 49
25.4
 74
    0
 49
-12.7
 74
    0
  0
LTYPE
  5
3A
330
5
100
AcDbSymbolTableRecord
100
AcDbLinetypeTableRecord
  2
DASHDOT
 70
    0
  3
Dash dot __ . __ . __ . __ . __ . __ . __ . __
 72
   65
 73
    4
 40
25.4
 49
12.7
 74
    0
 49
-6.35
 74
    0
 49
0
 74
    0
 49
-6.35
 74
    0
  0
LTYPE
  5
3B
330
5
100
AcDbSymbolTableRecord
100
AcDbLinetypeTableRecord
  2
DASHDOTTINY
 70
    0
  3
Dash dot (.15x) _._._._._._._._._._._._._._._.
 72
   65
 73
    4
 40
3.81
 49
1.905
 74
    0
 49
-0.9525
 74
    0
 49
0
 74
    0
 49
-0.9525
 74
    0
  0
LTYPE
  5
3C
330
5
100
AcDbSymbolTableRecord
100
AcDbLinetypeTableRecord
  2
DASHDOT2
 70
    0
  3
Dash dot (.5x) _._._._._._._._._._._._._._._.
 72
   65
 73
    4
 40
12.7
 49
6.35
 74
    0
 49
-3.175
 74
    0
 49
0
 74
    0
 49
-3.175
 74
    0
  0
LTYPE
  5
3D
330
5
100
AcDbSymbolTableRecord
100
AcDbLinetypeTableRecord
  2
DASHDOTX2
 70
    0
  3
Dash dot (2x) ____  .  ____  .  ____  .  ___
 72
   65
 73
    4
 40
50.8
 49
25.4
 74
    0
 49
-12.7
 74
    0
 49
0
 74
    0
 49
-12.7
 74
    0
  0
LTYPE
  5
3E
330
5
100
AcDbSymbolTableRecord
100
AcDbLinetypeTableRecord
  2
DIVIDE
 70
    0
  3
Divide ____ . . ____ . . ____ . . ____ . . ____
 72
   65
 73
    6
 40
31.75
 49
12.7
 74
    0
 49
-6.35
 74
    0
 49
0
 74
    0
 49
-6.35
 74
    0
 49
0
 74
    0
 49
-6.35
 74
    0
  0
LTYPE
  5
3F
330
5
100
AcDbSymbolTableRecord
100
AcDbLinetypeTableRecord
  2
DIVIDETINY
 70
    0
  3
Divide (.15x) __..__..__..__..__..__..__..__.._
 72
   65
 73
    6
 40
4.7625
 49
1.905
 74
    0
 49
-0.9525
 74
    0
 49
0
 74
    0
 49
-0.9525
 74
    0
 49
0
 74
    0
 49
-0.9525
 74
    0
  0
LTYPE
  5
40
330
5
100
AcDbSymbolTableRecord
100
AcDbLinetypeTableRecord
  2
DIVIDE2
 70
    0
  3
Divide (.5x) __..__..__..__..__..__..__..__.._
 72
   65
 73
    6
 40
15.875
 49
6.35
 74
    0
 49
-3.175
 74
    0
 49
0
 74
    0
 49
-3.175
 74
    0
 49
0
 74
    0
 49
-3.175
 74
    0
  0
LTYPE
  5
41
330
5
100
AcDbSymbolTableRecord
100
AcDbLinetypeTableRecord
  2
DIVIDEX2
 70
    0
  3
Divide (2x) ________  .  .  ________  .  .  _
 72
   65
 73
    6
 40
63.5
 49
25.4
 74
    0
 49
-12.7
 74
    0
 49
0
 74
    0
 49
-12.7
 74
    0
 49
0
 74
    0
 49
-12.7
 74
    0
  0
LTYPE
  5
42
330
5
100
AcDbSymbolTableRecord
100
AcDbLinetypeTableRecord
  2
BORDER
 70
    0
  3
Border __ __ . __ __ . __ __ . __ __ . __ __ .
 72
   65
 73
    6
 40
44.45
 49
12.7
 74
    0
 49
-6.35
 74
    0
 49
12.7
 74
    0
 49
-6.35
 74
    0
 49
0
 74
    0
 49
-6.35
 74
    0
  0
LTYPE
  5
43
330
5
100
AcDbSymbolTableRecord
100
AcDbLinetypeTableRecord
  2
BORDERTINY
 70
    0
  3
Border (.15x) __.__.__.__.__.__.__.__.__.__.__.
 72
   65
 73
    6
 40
6.6675
 49
1.905
 74
    0
 49
-0.9525
 74
    0
 49
1.905
 74
    0
 49
-0.9525
 74
    0
 49
0
 74
    0
 49
-0.9525
 74
    0
  0
LTYPE
  5
44
330
5
100
AcDbSymbolTableRecord
100
AcDbLinetypeTableRecord
  2
BORDER2
 70
    0
  3
Border (.5x) __.__.__.__.__.__.__.__.__.__.__.
 72
   65
 73
    6
 40
22.225
 49
6.35
 74
    0
 49
-3.175
 74
    0
 49
6.35
 74
    0
 49
-3.175
 74
    0
 49
0
 74
    0
 49
-3.175
 74
    0
  0
LTYPE
  5
45
330
5
100
AcDbSymbolTableRecord
100
AcDbLinetypeTableRecord
  2
BORDERX2
 70
    0
  3
Border (2x) ____  ____  .  ____  ____  .  ___
 72
   65
 73
    6
 40
88.89999999999999
 49
25.4
 74
    0
 49
-12.7
 74
    0
 49
25.4
 74
    0
 49
-12.7
 74
    0
 49
0
 74
    0
 49
-12.7
 74
    0
  0
LTYPE
  5
46
330
5
100
AcDbSymbolTableRecord
100
AcDbLinetypeTableRecord
  2
CENTER
 70
    0
  3
Center ____ _ ____ _ ____ _ ____ _ ____ _ ____
 72
   65
 73
    4
 40
50.8
 49
31.75
 74
    0
 49
-6.35
 74
    0
 49
6.35
 74
    0
 49
-6.35
 74
    0
  0
LTYPE
  5
47
330
5
100
AcDbSymbolTableRecord
100
AcDbLinetypeTableRecord
  2
CENTERTINY
 70
    0
  3
Center (.15x) ___ _ ___ _ ___ _ ___ _ ___ _ ___
 72
   65
 73
    4
 40
7.62
 49
4.7625
 74
    0
 49
-0.9525
 74
    0
 49
0.9525
 74
    0
 49
-0.9525
 74
    0
  0
LTYPE
  5
48
330
5
100
AcDbSymbolTableRecord
100
AcDbLinetypeTableRecord
  2
CENTER2
 70
    0
  3
Center (.5x) ___ _ ___ _ ___ _ ___ _ ___ _ ___
 72
   65
 73
    4
 40
28.575
 49
19.05
 74
    0
 49
-3.175
 74
    0
 49
3.175
 74
    0
 49
-3.175
 74
    0
  0
LTYPE
  5
49
330
5
100
AcDbSymbolTableRecord
100
AcDbLinetypeTableRecord
  2
CENTERX2
 70
    0
  3
Center (2x) ________  __  ________  __  _____
 72
   65
 73
    4
 40
101.6
 49
63.5
 74
    0
 49
-12.7
 74
    0
 49
12.7
 74
    0
 49
-12.7
 74
    0
  0
ENDTAB
  0
TABLE
  2
LAYER
  5
2
330
0
100
AcDbSymbolTable
 70
    1
  0
LAYER
  5
10
330
2
100
AcDbSymbolTableRecord
100
AcDbLayerTableRecord
  2
0
 70
    0
 62
    7
  6
CONTINUOUS
370
   -3
390
F
  0
ENDTAB
  0
TABLE
  2
STYLE
  5
3
330
0
100
AcDbSymbolTable
 70
    3
  0
STYLE
  5
4A
330
2
100
AcDbSymbolTableRecord
100
AcDbTextStyleTableRecord
  2
Standard
 70
    0
 40
0
 41
1
 50
0
 71
    0
 42
1
  3
txt
  4

  0
ENDTAB
  0
TABLE
  2
VIEW
  5
6
330
0
100
AcDbSymbolTable
 70
    0
  0
ENDTAB
  0
TABLE
  2
UCS
  5
7
330
0
100
AcDbSymbolTable
 70
    0
  0
ENDTAB
  0
TABLE
  2
APPID
  5
9
330
0
100
AcDbSymbolTable
 70
    1
  0
APPID
  5
12
330
9
100
AcDbSymbolTableRecord
100
AcDbRegAppTableRecord
  2
ACAD
 70
    0
  0
APPID
  5
4B
330
9
100
AcDbSymbolTableRecord
100
AcDbRegAppTableRecord
  2
LibreCad
 70
    0
  0
ENDTAB
  0
TABLE
  2
DIMSTYLE
  5
A
330
0
100
AcDbSymbolTable
 70
    1
100
AcDbDimStyleTable
 71
    1
  0
DIMSTYLE
105
4C
330
A
100
AcDbSymbolTableRecord
100
AcDbDimStyleTableRecord
  2
Standard
 70
    0
 40
2.5
 41
0.25
 42
0.0625
 43
0.38
 44
0.125
 45
0
 46
0
 47
0
 48
0
 49
1
140
0.25
141
0.09
142
0
143
25.4
144
1
145
0
146
1
147
0.0625
148
0
 71
    0
 72
    0
 73
    0
 74
    1
 75
    0
 76
    0
 77
    0
 78
    8
 79
    0
170
    0
171
    2
172
    0
173
    0
174
    0
175
    0
176
    0
177
    0
178
    0
179
    0
271
    2
272
    4
273
    2
274
    2
275
    0
276
    0
277
    2
278
   44
279
    0
280
    0
281
    0
282
    0
283
    1
284
    0
285
    0
286
    0
288
    0
289
    3
340
STANDARD
341

371
   -2
372
   -2
  0
ENDTAB
  0
TABLE
  2
BLOCK_RECORD
  5
1
330
0
100
AcDbSymbolTable
 70
    2
  0
BLOCK_RECORD
  5
1F
330
1
100
AcDbSymbolTableRecord
100
AcDbBlockTableRecord
  2
*Model_Space
 70
    0
280
    1
281
    0
  0
BLOCK_RECORD
  5
1E
330
1
100
AcDbSymbolTableRecord
100
AcDbBlockTableRecord
  2
*Paper_Space
 70
    0
280
    1
281
    0
  0
ENDTAB
  0
ENDSEC
  0
SECTION
  2
BLOCKS
  0
BLOCK
  5
20
330
1F
100
AcDbEntity
  8
0
100
AcDbBlockBegin
  2
*Model_Space
 70
    0
 10
0
 20
0
 30
0
  3
*Model_Space
  1

  0
ENDBLK
  5
21
330
1F
100
AcDbEntity
  8
0
100
AcDbBlockEnd
  0
BLOCK
  5
1C
330
1B
100
AcDbEntity
  8
0
100
AcDbBlockBegin
  2
*Paper_Space
 70
    0
 10
0
 20
0
 30
0
  3
*Paper_Space
  1

  0
ENDBLK
  5
1D
330
1F
100
AcDbEntity
  8
0
100
AcDbBlockEnd
  0
ENDSEC
  0
SECTION
  2
ENTITIES
  0
LWPOLYLINE
  5
4D
100
AcDbEntity
  8
0
  6
ByLayer
 62
  256
370
   -1
100
AcDbPolyline
 90
    5
 70
    1
 43
0
 10
-226.9842096602447
 20
-334.0825960343711
 10
-215.137216410094
 20
-308.2981310124166
 10
-242.417861196342
 20
-300.4912046287625
 10
-266.3672937934944
 20
-316.2736036433227
 10
-254.5593402327484
 20
-341.9737912579141
  0
LWPOLYLINE
  5
4E
100
AcDbEntity
  8
0
  6
ByLayer
 62
  256
370
   -1
100
AcDbPolyline
 90
    5
 70
    1
 43
0
 10
-226.8176140054114
 20
-336.1152036058025
 10
-254.392744577915
 20
-344.0063988293455
 10
-266.2397378280462
 20
-369.7908638513093
 10
-238.959093041797
 20
-377.5977902349615
 10
-215.0096604446532
 20
-361.8153912203887
  0
LWPOLYLINE
  5
4F
100
AcDbEntity
  8
0
  6
ByLayer
 62
  256
370
   -1
100
AcDbPolyline
 90
    5
 70
    1
 43
0
 10
-308.4515059679863
 20
-390.636000096361
 10
-320.2594633359436
 20
-416.3361859617287
 10
-296.3100330767845
 20
-432.1185885241398
 10
-269.0293871340242
 20
-424.3116661818204
 10
-280.8763765644776
 20
-398.5271994048589
  0
LWPOLYLINE
  5
50
100
AcDbEntity
  8
0
  6
ByLayer
 62
  256
370
   -1
100
AcDbPolyline
 90
    5
 70
    1
 43
0
 10
-292.8512535022313
 20
-355.012003446478
 10
-320.1318994217066
 20
-362.8189257821935
 10
-308.2849100013623
 20
-388.6033925371665
 10
-280.7097806167362
 20
-396.4945918402606
 10
-268.9018232594972
 20
-370.7944059981235
  0
LWPOLYLINE
  5
51
100
AcDbEntity
  8
0
  6
ByLayer
 62
  256
370
   -1
100
AcDbPolyline
 90
    5
 70
    1
 43
0
 10
-297.4105326595321
 20
-324.7469783275961
 10
-321.1041890399379
 20
-309.1331278466782
 10
-332.9511822900413
 20
-334.9175928686541
 10
-320.9766318473955
 20
-360.9803810894722
 10
-293.7851424639577
 20
-353.1989727446872
  0
LWPOLYLINE
  5
52
100
AcDbEntity
  8
0
  6
ByLayer
 62
  256
370
   -1
100
AcDbPolyline
 90
    5
 70
    1
 43
0
 10
-214.2924918094692
 20
-415.5011915286081
 10
-202.3179375059466
 20
-389.4384050816701
 10
-214.164926936426
 20
-363.6539383047208
 10
-237.8585856298226
 20
-379.2677852757294
 10
-241.4839800401947
 20
-407.7197791557647
  0
LWPOLYLINE
  5
53
100
AcDbEntity
  8
0
  6
ByLayer
 62
  256
370
   -1
100
AcDbPolyline
 90
    5
 70
    1
 43
0
 10
-267.0844705053061
 20
-371.6294084093432
 10
-279.0590248087958
 20
-397.6921948562963
 10
-267.2120353783427
 20
-423.4766616332572
 10
-243.5183766849573
 20
-407.8628146622344
 10
-239.8929822745851
 20
-379.4108207821984
  0
LWPOLYLINE
  5
54
100
AcDbEntity
  8
0
  6
ByLayer
 62
  256
370
   -1
100
AcDbPolyline
 90
    5
 70
    1
 43
0
 10
-295.3761360359581
 20
-324.8900141354371
 10
-291.7507458403838
 20
-353.3420085525279
 10
-268.0570894600303
 20
-368.9558590335242
 10
-256.2100962099005
 20
-343.1713940115631
 10
-268.1846466525015
 20
-317.1086057907229
  0
LWPOLYLINE
  5
55
100
AcDbEntity
  8
0
  6
ByLayer
 62
  256
370
   -1
100
AcDbPolyline
 90
    5
 70
    1
 43
0
 10
-11.41555306004009
 20
-225.0410069271275
 10
0.4314401901106118
 20
-199.256541905173
 10
-26.8492045961374
 20
-191.449615521519
 10
-50.79863719328977
 20
-207.2320145360792
 10
-38.99068363254381
 20
-232.9322021506705
  0
LWPOLYLINE
  5
56
100
AcDbEntity
  8
0
  6
ByLayer
 62
  256
370
   -1
100
AcDbPolyline
 90
    5
 70
    1
 43
0
 10
-11.24895740520681
 20
-227.073614498559
 10
-38.82408797771048
 20
-234.964809722102
 10
-50.67108122784159
 20
-260.7492747440658
 10
-23.39043644159247
 20
-268.5562011277179
 10
0.558996155551345
 20
-252.7738021131451
  0
LWPOLYLINE
  5
57
100
AcDbEntity
  8
0
  6
ByLayer
 62
  256
370
   -1
100
AcDbPolyline
 90
    5
 70
    1
 43
0
 10
-92.88284936778179
 20
-281.5944109891175
 10
-104.690806735739
 20
-307.2945968544851
 10
-80.74137647657992
 20
-323.0769994168963
 10
-53.46073053381961
 20
-315.2700770745769
 10
-65.30771996427299
 20
-289.4856102976153
  0
LWPOLYLINE
  5
58
100
AcDbEntity
  8
0
  6
ByLayer
 62
  256
370
   -1
100
AcDbPolyline
 90
    5
 70
    1
 43
0
 10
-77.28259690202671
 20
-245.9704143392345
 10
-104.5632428215021
 20
-253.7773366749499
 10
-92.71625340115772
 20
-279.561803429923
 10
-65.14112401653159
 20
-287.4530027330171
 10
-53.33316665929262
 20
-261.75281689088
  0
LWPOLYLINE
  5
59
100
AcDbEntity
  8
0
  6
ByLayer
 62
  256
370
   -1
100
AcDbPolyline
 90
    5
 70
    1
 43
0
 10
-81.84187605932746
 20
-215.7053892203526
 10
-105.5355324397332
 20
-200.0915387394347
 10
-117.3825256898367
 20
-225.8760037614105
 10
-105.4079752471909
 20
-251.9387919822287
 10
-78.21648586375306
 20
-244.1573836374436
  0
LWPOLYLINE
  5
5A
100
AcDbEntity
  8
0
  6
ByLayer
 62
  256
370
   -1
100
AcDbPolyline
 90
    5
 70
    1
 43
0
 10
1.276164790735367
 20
-306.4596024213645
 10
13.25071909425801
 20
-280.3968159744265
 10
1.403729663778625
 20
-254.6123491974773
 10
-22.28992902961798
 20
-270.2261961684858
 10
-25.91532343999009
 20
-298.6781900485212
  0
LWPOLYLINE
  5
5B
100
AcDbEntity
  8
0
  6
ByLayer
 62
  256
370
   -1
100
AcDbPolyline
 90
    5
 70
    1
 43
0
 10
-51.51581390510149
 20
-262.5878193020997
 10
-63.49036820859114
 20
-288.6506057490527
 10
-51.64337877813814
 20
-314.4350725260136
 10
-27.94972008475271
 20
-298.821225554991
 10
-24.32432567438051
 20
-270.3692316749548
  0
LWPOLYLINE
  5
5C
100
AcDbEntity
  8
0
  6
ByLayer
 62
  256
370
   -1
100
AcDbPolyline
 90
    5
 70
    1
 43
0
 10
-79.80747943575356
 20
-215.8484250281936
 10
-76.18208924017917
 20
-244.3004194452844
 10
-52.48843285982579
 20
-259.9142699262806
 10
-40.64143960969588
 20
-234.1298049043195
 10
-52.61599005229695
 20
-208.0670166834795
  0
LWPOLYLINE
  5
5D
100
AcDbEntity
  8
0
  6
ByLayer
 62
  256
370
   -1
100
AcDbPolyline
 90
    5
 70
    1
 43
0
 10
-226.9842015836036
 20
-225.0409909601314
 10
-215.1372083334529
 20
-199.2565259381769
 10
-242.4178531197009
 20
-191.4495995545228
 10
-266.3672857168532
 20
-207.231998569083
 10
-254.5593321561073
 20
-232.9321861836744
  0
LWPOLYLINE
  5
5E
100
AcDbEntity
  8
0
  6
ByLayer
 62
  256
370
   -1
100
AcDbPolyline
 90
    5
 70
    1
 43
0
 10
-226.8176059287703
 20
-227.0735985315629
 10
-254.3927365012739
 20
-234.9647937551058
 10
-266.239729751405
 20
-260.7492587770696
 10
-238.959084965156
 20
-268.5561851607218
 10
-215.0096523680121
 20
-252.7737861461489
  0
LWPOLYLINE
  5
5F
100
AcDbEntity
  8
0
  6
ByLayer
 62
  256
370
   -1
100
AcDbPolyline
 90
    5
 70
    1
 43
0
 10
-308.4514978913453
 20
-281.5943950221213
 10
-320.2594552593025
 20
-307.2945808874889
 10
-296.3100250001434
 20
-323.0769834499001
 10
-269.0293790573831
 20
-315.2700611075807
 10
-280.8763684878365
 20
-289.4855943306191
  0
LWPOLYLINE
  5
60
100
AcDbEntity
  8
0
  6
ByLayer
 62
  256
370
   -1
100
AcDbPolyline
 90
    5
 70
    1
 43
0
 10
-292.8512454255902
 20
-245.9703983722383
 10
-320.1318913450656
 20
-253.7773207079538
 10
-308.2849019247212
 20
-279.5617874629269
 10
-280.7097725400951
 20
-287.4529867660209
 10
-268.9018151828561
 20
-261.7528009238837
  0
LWPOLYLINE
  5
61
100
AcDbEntity
  8
0
  6
ByLayer
 62
  256
370
   -1
100
AcDbPolyline
 90
    5
 70
    1
 43
0
 10
-297.4105245828909
 20
-215.7053732533564
 10
-321.1041809632967
 20
-200.0915227724385
 10
-332.9511742134002
 20
-225.8759877944143
 10
-320.9766237707544
 20
-251.9387760152325
 10
-293.7851343873165
 20
-244.1573676704475
  0
LWPOLYLINE
  5
62
100
AcDbEntity
  8
0
  6
ByLayer
 62
  256
370
   -1
100
AcDbPolyline
 90
    5
 70
    1
 43
0
 10
-214.2924837328281
 20
-306.4595864543683
 10
-202.3179294293055
 20
-280.3968000074304
 10
-214.1649188597849
 20
-254.6123332304811
 10
-237.8585775531814
 20
-270.2261802014896
 10
-241.4839719635536
 20
-298.678174081525
  0
LWPOLYLINE
  5
63
100
AcDbEntity
  8
0
  6
ByLayer
 62
  256
370
   -1
100
AcDbPolyline
 90
    5
 70
    1
 43
0
 10
-267.0844624286649
 20
-262.5878033351036
 10
-279.0590167321546
 20
-288.6505897820566
 10
-267.2120273017016
 20
-314.4350565590174
 10
-243.5183686083162
 20
-298.8212095879948
 10
-239.892974197944
 20
-270.3692157079586
  0
LWPOLYLINE
  5
64
100
AcDbEntity
  8
0
  6
ByLayer
 62
  256
370
   -1
100
AcDbPolyline
 90
    5
 70
    1
 43
0
 10
-295.376127959317
 20
-215.8484090611974
 10
-291.7507377637426
 20
-244.3004034782882
 10
-268.0570813833893
 20
-259.9142539592845
 10
-256.2100881332594
 20
-234.1297889373233
 10
-268.1846385758604
 20
-208.0670007164833
  0
LWPOLYLINE
  5
65
100
AcDbEntity
  8
0
  6
ByLayer
 62
  256
370
   -1
100
AcDbPolyline
 90
    5
 70
    1
 43
0
 10
-295.3761198826759
 20
-106.8068039869577
 10
-291.7507296871016
 20
-135.2587984040485
 10
-268.0570733067481
 20
-150.8726488850447
 10
-256.2100800566182
 20
-125.0881838630836
 10
-268.1846304992193
 20
-99.02539564224355
  0
LWPOLYLINE
  5
66
100
AcDbEntity
  8
0
  6
ByLayer
 62
  256
370
   -1
100
AcDbPolyline
 90
    5
 70
    1
 43
0
 10
-267.0844543520238
 20
-153.5461982608638
 10
-279.0590086555135
 20
-179.6089847078169
 10
-267.2120192250605
 20
-205.3934514847777
 10
-243.5183605316751
 20
-189.779604513755
 10
-239.8929661213029
 20
-161.3276106337189
  0
LWPOLYLINE
  5
67
100
AcDbEntity
  8
0
  6
ByLayer
 62
  256
370
   -1
100
AcDbPolyline
 90
    5
 70
    1
 43
0
 10
-214.292475656187
 20
-197.4179813801286
 10
-202.3179213526644
 20
-171.3551949331907
 10
-214.1649107831438
 20
-145.5707281562414
 10
-237.8585694765403
 20
-161.1845751272499
 10
-241.4839638869124
 20
-189.6365690072853
  0
LWPOLYLINE
  5
68
100
AcDbEntity
  8
0
  6
ByLayer
 62
  256
370
   -1
100
AcDbPolyline
 90
    5
 70
    1
 43
0
 10
-297.4105165062498
 20
-106.6637681791167
 10
-321.1041728866556
 20
-91.0499176981988
 10
-332.9511661367591
 20
-116.8343827201747
 10
-320.9766156941133
 20
-142.8971709409928
 10
-293.7851263106755
 20
-135.1157625962077
  0
LWPOLYLINE
  5
69
100
AcDbEntity
  8
0
  6
ByLayer
 62
  256
370
   -1
100
AcDbPolyline
 90
    5
 70
    1
 43
0
 10
-292.8512373489491
 20
-136.9287932979986
 10
-320.1318832684244
 20
-144.7357156337141
 10
-308.2848938480801
 20
-170.5201823886871
 10
-280.709764463454
 20
-178.4113816917813
 10
-268.901807106215
 20
-152.7111958496441
  0
LWPOLYLINE
  5
6A
100
AcDbEntity
  8
0
  6
ByLayer
 62
  256
370
   -1
100
AcDbPolyline
 90
    5
 70
    1
 43
0
 10
-308.4514898147041
 20
-172.5527899478816
 10
-320.2594471826613
 20
-198.2529758132492
 10
-296.3100169235023
 20
-214.0353783756604
 10
-269.0293709807419
 20
-206.228456033341
 10
-280.8763604111954
 20
-180.4439892563794
  0
LWPOLYLINE
  5
6B
100
AcDbEntity
  8
0
  6
ByLayer
 62
  256
370
   -1
100
AcDbPolyline
 90
    5
 70
    1
 43
0
 10
-226.8175978521292
 20
-118.0319934573231
 10
-254.3927284246328
 20
-125.9231886808661
 10
-266.239721674764
 20
-151.7076537028299
 10
-238.9590768885148
 20
-159.514580086482
 10
-215.009644291371
 20
-143.7321810719093
  0
LWPOLYLINE
  5
6C
100
AcDbEntity
  8
0
  6
ByLayer
 62
  256
370
   -1
100
AcDbPolyline
 90
    5
 70
    1
 43
0
 10
-226.9841935069624
 20
-115.9993858858916
 10
-215.1372002568118
 20
-90.21492086393715
 10
-242.4178450430598
 20
-82.40799448028308
 10
-266.3672776402121
 20
-98.19039349484326
 10
-254.5593240794661
 20
-123.8905811094347
  0
LWPOLYLINE
  5
6D
100
AcDbEntity
  8
0
  6
ByLayer
 62
  256
370
   -1
100
AcDbPolyline
 90
    5
 70
    1
 43
0
 10
-187.5918036975353
 20
-215.8484170446955
 10
-183.9664135019609
 20
-244.3004114617863
 10
-160.2727571216075
 20
-259.9142619427826
 10
-148.4257638714776
 20
-234.1297969208214
 10
-160.4003143140787
 20
-208.0670086999814
  0
LWPOLYLINE
  5
6E
100
AcDbEntity
  8
0
  6
ByLayer
 62
  256
370
   -1
100
AcDbPolyline
 90
    5
 70
    1
 43
0
 10
-159.3001381668832
 20
-262.5878113186016
 10
-171.2746924703729
 20
-288.6505977655546
 10
-159.4277030399199
 20
-314.4350645425154
 10
-135.7340443465344
 20
-298.8212175714929
 10
-132.1086499361622
 20
-270.3692236914567
  0
LWPOLYLINE
  5
6F
100
AcDbEntity
  8
0
  6
ByLayer
 62
  256
370
   -1
100
AcDbPolyline
 90
    5
 70
    1
 43
0
 10
-106.5081594710464
 20
-306.4595944378664
 10
-94.53360516752372
 20
-280.3968079909285
 10
-106.3805945980031
 20
-254.6123412139792
 10
-130.0742532913997
 20
-270.2261881849877
 10
-133.6996477017718
 20
-298.6781820650231
  0
LWPOLYLINE
  5
70
100
AcDbEntity
  8
0
  6
ByLayer
 62
  256
370
   -1
100
AcDbPolyline
 90
    5
 70
    1
 43
0
 10
-189.6262003211092
 20
-215.7053812368545
 10
-213.319856701515
 20
-200.0915307559366
 10
-225.1668499516184
 20
-225.8759957779125
 10
-213.1922995089727
 20
-251.9387839987306
 10
-186.0008101255348
 20
-244.1573756539455
  0
LWPOLYLINE
  5
71
100
AcDbEntity
  8
0
  6
ByLayer
 62
  256
370
   -1
100
AcDbPolyline
 90
    5
 70
    1
 43
0
 10
-185.0669211638085
 20
-245.9704063557364
 10
-212.3475670832838
 20
-253.7773286914519
 10
-200.5005776629395
 20
-279.5617954464249
 10
-172.9254482783133
 20
-287.4529947495191
 10
-161.1174909210744
 20
-261.7528089073818
  0
LWPOLYLINE
  5
72
100
AcDbEntity
  8
0
  6
ByLayer
 62
  256
370
   -1
100
AcDbPolyline
 90
    5
 70
    1
 43
0
 10
-200.6671736295636
 20
-281.5944030056194
 10
-212.4751309975208
 20
-307.294588870987
 10
-188.5257007383616
 20
-323.0769914333982
 10
-161.2450547956014
 20
-315.2700690910788
 10
-173.0920442260547
 20
-289.4856023141172
  0
LWPOLYLINE
  5
73
100
AcDbEntity
  8
0
  6
ByLayer
 62
  256
370
   -1
100
AcDbPolyline
 90
    5
 70
    1
 43
0
 10
-119.0332816669886
 20
-227.0736065150608
 10
-146.6084122394922
 20
-234.9648017386039
 10
-158.4554054896233
 20
-260.7492667605677
 10
-131.1747607033742
 20
-268.5561931442198
 10
-107.2253281062304
 20
-252.773794129647
  0
LWPOLYLINE
  5
74
100
AcDbEntity
  8
0
  6
ByLayer
 62
  256
370
   -1
100
AcDbPolyline
 90
    5
 70
    1
 43
0
 10
-119.1998773218218
 20
-225.0409989436294
 10
-107.3528840716711
 20
-199.256533921675
 10
-134.6335288579191
 20
-191.4496075380209
 10
-158.5829614550715
 20
-207.2320065525811
 10
-146.7750078943256
 20
-232.9321941671725
  0
LWPOLYLINE
  5
75
100
AcDbEntity
  8
0
  6
ByLayer
 62
  256
370
   -1
100
AcDbPolyline
 90
    5
 70
    1
 43
0
 10
-119.1998853984629
 20
-334.0826040178692
 10
-107.3528921483123
 20
-308.2981389959147
 10
-134.6335369345603
 20
-300.4912126122607
 10
-158.5829695317126
 20
-316.2736116268208
 10
-146.7750159709666
 20
-341.9737992414122
  0
LWPOLYLINE
  5
76
100
AcDbEntity
  8
0
  6
ByLayer
 62
  256
370
   -1
100
AcDbPolyline
 90
    5
 70
    1
 43
0
 10
-119.0332897436297
 20
-336.1152115893007
 10
-146.6084203161333
 20
-344.0064068128436
 10
-158.4554135662645
 20
-369.7908718348074
 10
-131.1747687800153
 20
-377.5977982184596
 10
-107.2253361828715
 20
-361.8153992038867
  0
LWPOLYLINE
  5
77
100
AcDbEntity
  8
0
  6
ByLayer
 62
  256
370
   -1
100
AcDbPolyline
 90
    5
 70
    1
 43
0
 10
-200.6671817062046
 20
-390.6360080798591
 10
-212.4751390741619
 20
-416.3361939452267
 10
-188.5257088150028
 20
-432.1185965076379
 10
-161.2450628722425
 20
-424.3116741653185
 10
-173.0920523026959
 20
-398.5272073883569
  0
LWPOLYLINE
  5
78
100
AcDbEntity
  8
0
  6
ByLayer
 62
  256
370
   -1
100
AcDbPolyline
 90
    5
 70
    1
 43
0
 10
-185.0669292404496
 20
-355.0120114299762
 10
-212.3475751599249
 20
-362.8189337656916
 10
-200.5005857395806
 20
-388.6034005206646
 10
-172.9254563549544
 20
-396.4945998237588
 10
-161.1174989977154
 20
-370.7944139816216
  0
LWPOLYLINE
  5
79
100
AcDbEntity
  8
0
  6
ByLayer
 62
  256
370
   -1
100
AcDbPolyline
 90
    5
 70
    1
 43
0
 10
-189.6262083977503
 20
-324.7469863110942
 10
-213.3198647781561
 20
-309.1331358301763
 10
-225.1668580282596
 20
-334.9176008521521
 10
-213.1923075856138
 20
-360.9803890729704
 10
-186.0008182021759
 20
-353.1989807281853
  0
LWPOLYLINE
  5
7A
100
AcDbEntity
  8
0
  6
ByLayer
 62
  256
370
   -1
100
AcDbPolyline
 90
    5
 70
    1
 43
0
 10
-106.5081675476875
 20
-415.5011995121062
 10
-94.53361324416484
 20
-389.4384130651683
 10
-106.3806026746442
 20
-363.6539462882189
 10
-130.0742613680408
 20
-379.2677932592274
 10
-133.6996557784129
 20
-407.7197871392627
  0
LWPOLYLINE
  5
7B
100
AcDbEntity
  8
0
  6
ByLayer
 62
  256
370
   -1
100
AcDbPolyline
 90
    5
 70
    1
 43
0
 10
-159.3001462435243
 20
-371.6294163928414
 10
-171.274700547014
 20
-397.6922028397943
 10
-159.427711116561
 20
-423.4766696167552
 10
-135.7340524231756
 20
-407.8628226457326
 10
-132.1086580128033
 20
-379.4108287656965
  0
LWPOLYLINE
  5
7C
100
AcDbEntity
  8
0
  6
ByLayer
 62
  256
370
   -1
100
AcDbPolyline
 90
    5
 70
    1
 43
0
 10
-187.5918117741764
 20
-324.8900221189352
 10
-183.966421578602
 20
-353.342016536026
 10
-160.2727651982486
 20
-368.9558670170223
 10
-148.4257719481187
 20
-343.1714019950611
 10
-160.4003223907198
 20
-317.1086137742211
  0
LWPOLYLINE
  5
7D
100
AcDbEntity
  8
0
  6
ByLayer
 62
  256
370
   -1
100
AcDbPolyline
 90
    5
 70
    1
 43
0
 10
-79.80748751239467
 20
-324.8900301024333
 10
-76.18209731682028
 20
-353.3420245195241
 10
-52.48844093646689
 20
-368.9558750005203
 10
-40.64144768633699
 20
-343.1714099785593
 10
-52.61599812893806
 20
-317.1086217577192
  0
LWPOLYLINE
  5
7E
100
AcDbEntity
  8
0
  6
ByLayer
 62
  256
370
   -1
100
AcDbPolyline
 90
    5
 70
    1
 43
0
 10
-51.5158219817426
 20
-371.6294243763394
 10
-63.49037628523225
 20
-397.6922108232924
 10
-51.64338685477923
 20
-423.4766776002533
 10
-27.94972816139384
 20
-407.8628306292307
 10
-24.32433375102161
 20
-379.4108367491945
  0
LWPOLYLINE
  5
7F
100
AcDbEntity
  8
0
  6
ByLayer
 62
  256
370
   -1
100
AcDbPolyline
 90
    5
 70
    1
 43
0
 10
1.276156714094261
 20
-415.5012074956042
 10
13.25071101761691
 20
-389.4384210486662
 10
1.403721587137494
 20
-363.653954271717
 10
-22.28993710625907
 20
-379.2678012427255
 10
-25.91533151663119
 20
-407.7197951227609
  0
LWPOLYLINE
  5
80
100
AcDbEntity
  8
0
  6
ByLayer
 62
  256
370
   -1
100
AcDbPolyline
 90
    5
 70
    1
 43
0
 10
-81.84188413596857
 20
-324.7469942945924
 10
-105.5355405163744
 20
-309.1331438136744
 10
-117.3825337664778
 20
-334.9176088356502
 10
-105.407983323832
 20
-360.9803970564684
 10
-78.21649394039416
 20
-353.1989887116833
  0
LWPOLYLINE
  5
81
100
AcDbEntity
  8
0
  6
ByLayer
 62
  256
370
   -1
100
AcDbPolyline
 90
    5
 70
    1
 43
0
 10
-77.28260497866782
 20
-355.0120194134743
 10
-104.5632508981432
 20
-362.8189417491897
 10
-92.71626147779882
 20
-388.6034085041628
 10
-65.14113209317271
 20
-396.4946078072568
 10
-53.33317473593373
 20
-370.7944219651197
  0
LWPOLYLINE
  5
82
100
AcDbEntity
  8
0
  6
ByLayer
 62
  256
370
   -1
100
AcDbPolyline
 90
    5
 70
    1
 43
0
 10
-92.88285744442291
 20
-390.6360160633572
 10
-104.6908148123801
 20
-416.3362019287248
 10
-80.74138455322104
 20
-432.118604491136
 10
-53.46073861046072
 20
-424.3116821488166
 10
-65.3077280409141
 20
-398.527215371855
  0
LWPOLYLINE
  5
83
100
AcDbEntity
  8
0
  6
ByLayer
 62
  256
370
   -1
100
AcDbPolyline
 90
    5
 70
    1
 43
0
 10
-11.24896548184792
 20
-336.1152195727987
 10
-38.82409605435157
 20
-344.0064147963417
 10
-50.67108930448268
 20
-369.7908798183054
 10
-23.39044451823358
 20
-377.5978062019576
 10
0.558988078910243
 20
-361.8154071873849
  0
LWPOLYLINE
  5
84
100
AcDbEntity
  8
0
  6
ByLayer
 62
  256
370
   -1
100
AcDbPolyline
 90
    5
 70
    1
 43
0
 10
-11.4155611366812
 20
-334.0826120013672
 10
0.4314321134694983
 20
-308.2981469794128
 10
-26.84921267277852
 20
-300.4912205957588
 10
-50.79864526993088
 20
-316.2736196103189
 10
-38.99069170918492
 20
-341.9738072249103
  0
LWPOLYLINE
  5
85
100
AcDbEntity
  8
0
  6
ByLayer
 62
  256
370
   -1
100
AcDbPolyline
 90
    5
 70
    1
 43
0
 10
-187.5917956208942
 20
-106.8068119704558
 10
-183.9664054253198
 20
-135.2588063875466
 10
-160.2727490449664
 20
-150.8726568685428
 10
-148.4257557948365
 20
-125.0881918465817
 10
-160.4003062374376
 20
-99.02540362574165
  0
LWPOLYLINE
  5
86
100
AcDbEntity
  8
0
  6
ByLayer
 62
  256
370
   -1
100
AcDbPolyline
 90
    5
 70
    1
 43
0
 10
-159.3001300902421
 20
-153.5462062443619
 10
-171.2746843937318
 20
-179.6089926913149
 10
-159.4276949632788
 20
-205.3934594682758
 10
-135.7340362698933
 20
-189.7796124972531
 10
-132.1086418595211
 20
-161.327618617217
  0
LWPOLYLINE
  5
87
100
AcDbEntity
  8
0
  6
ByLayer
 62
  256
370
   -1
100
AcDbPolyline
 90
    5
 70
    1
 43
0
 10
-106.5081513944053
 20
-197.4179893636267
 10
-94.53359709088261
 20
-171.3552029166887
 10
-106.380586521362
 20
-145.5707361397395
 10
-130.0742452147586
 20
-161.184583110748
 10
-133.6996396251307
 20
-189.6365769907834
  0
LWPOLYLINE
  5
88
100
AcDbEntity
  8
0
  6
ByLayer
 62
  256
370
   -1
100
AcDbPolyline
 90
    5
 70
    1
 43
0
 10
-189.6261922444681
 20
-106.6637761626148
 10
-213.3198486248739
 20
-91.04992568169688
 10
-225.1668418749773
 20
-116.8343907036727
 10
-213.1922914323316
 20
-142.8971789244909
 10
-186.0008020488937
 20
-135.1157705797058
  0
LWPOLYLINE
  5
89
100
AcDbEntity
  8
0
  6
ByLayer
 62
  256
370
   -1
100
AcDbPolyline
 90
    5
 70
    1
 43
0
 10
-185.0669130871674
 20
-136.9288012814967
 10
-212.3475590066427
 20
-144.7357236172122
 10
-200.5005695862984
 20
-170.5201903721852
 10
-172.9254402016722
 20
-178.4113896752793
 10
-161.1174828444333
 20
-152.7112038331422
  0
LWPOLYLINE
  5
8A
100
AcDbEntity
  8
0
  6
ByLayer
 62
  256
370
   -1
100
AcDbPolyline
 90
    5
 70
    1
 43
0
 10
-200.6671655529224
 20
-172.5527979313797
 10
-212.4751229208796
 20
-198.2529837967473
 10
-188.5256926617205
 20
-214.0353863591585
 10
-161.2450467189603
 20
-206.2284640168391
 10
-173.0920361494136
 20
-180.4439972398775
  0
LWPOLYLINE
  5
8B
100
AcDbEntity
  8
0
  6
ByLayer
 62
  256
370
   -1
100
AcDbPolyline
 90
    5
 70
    1
 43
0
 10
-119.0332735903474
 20
-118.0320014408212
 10
-146.6084041628511
 20
-125.9231966643642
 10
-158.4553974129822
 20
-151.707661686328
 10
-131.1747526267331
 20
-159.5145880699801
 10
-107.2253200295893
 20
-143.7321890554073
  0
LWPOLYLINE
  5
8C
100
AcDbEntity
  8
0
  6
ByLayer
 62
  256
370
   -1
100
AcDbPolyline
 90
    5
 70
    1
 43
0
 10
-119.1998692451807
 20
-115.9993938693897
 10
-107.35287599503
 20
-90.21492884743526
 10
-134.633520781278
 20
-82.40800246378119
 10
-158.5829533784304
 20
-98.19040147834136
 10
-146.7749998176844
 20
-123.8905890929327
  0
LWPOLYLINE
  5
8D
100
AcDbEntity
  8
0
  6
ByLayer
 62
  256
370
   -1
100
AcDbPolyline
 90
    5
 70
    1
 43
0
 10
-79.80747135911245
 20
-106.8068199539539
 10
-76.18208116353806
 20
-135.2588143710447
 10
-52.48842478318467
 20
-150.8726648520409
 10
-40.64143153305477
 20
-125.0881998300798
 10
-52.61598197565585
 20
-99.02541160923973
  0
LWPOLYLINE
  5
8E
100
AcDbEntity
  8
0
  6
ByLayer
 62
  256
370
   -1
100
AcDbPolyline
 90
    5
 70
    1
 43
0
 10
-51.51580582846039
 20
-153.54621422786
 10
-63.49036013195003
 20
-179.609000674813
 10
-51.64337070149703
 20
-205.3934674517739
 10
-27.9497120081116
 20
-189.7796204807512
 10
-24.3243175977394
 20
-161.3276266007151
  0
LWPOLYLINE
  5
8F
100
AcDbEntity
  8
0
  6
ByLayer
 62
  256
370
   -1
100
AcDbPolyline
 90
    5
 70
    1
 43
0
 10
1.276172867376485
 20
-197.4179973471248
 10
13.25072717089912
 20
-171.3552109001868
 10
1.403737740419727
 20
-145.5707441232375
 10
-22.28992095297686
 20
-161.1845910942461
 10
-25.91531536334897
 20
-189.6365849742814
  0
LWPOLYLINE
  5
90
100
AcDbEntity
  8
0
  6
ByLayer
 62
  256
370
   -1
100
AcDbPolyline
 90
    5
 70
    1
 43
0
 10
-81.84186798268637
 20
-106.6637841461129
 10
-105.5355243630921
 20
-91.04993366519496
 10
-117.3825176131956
 20
-116.8343986871708
 10
-105.4079671705498
 20
-142.897186907989
 10
-78.21647778711194
 20
-135.1157785632039
  0
LWPOLYLINE
  5
91
100
AcDbEntity
  8
0
  6
ByLayer
 62
  256
370
   -1
100
AcDbPolyline
 90
    5
 70
    1
 43
0
 10
-77.2825888253856
 20
-136.9288092649948
 10
-104.5632347448609
 20
-144.7357316007103
 10
-92.71624532451661
 20
-170.5201983556833
 10
-65.14111593989048
 20
-178.4113976587774
 10
-53.33315858265151
 20
-152.7112118166402
  0
LWPOLYLINE
  5
92
100
AcDbEntity
  8
0
  6
ByLayer
 62
  256
370
   -1
100
AcDbPolyline
 90
    5
 70
    1
 43
0
 10
-92.88284129114068
 20
-172.5528059148778
 10
-104.6907986590979
 20
-198.2529917802454
 10
-80.74136839993881
 20
-214.0353943426565
 10
-53.46072245717851
 20
-206.2284720003371
 10
-65.3077118876319
 20
-180.4440052233756
  0
LWPOLYLINE
  5
93
100
AcDbEntity
  8
0
  6
ByLayer
 62
  256
370
   -1
100
AcDbPolyline
 90
    5
 70
    1
 43
0
 10
-11.24894932856571
 20
-118.0320094243193
 10
-38.82407990106936
 20
-125.9232046478623
 10
-50.67107315120048
 20
-151.707669669826
 10
-23.39042836495137
 20
-159.5145960534782
 10
0.5590042321924567
 20
-143.7321970389054
  0
LWPOLYLINE
  5
94
100
AcDbEntity
  8
0
  6
ByLayer
 62
  256
370
   -1
100
AcDbPolyline
 90
    5
 70
    1
 43
0
 10
-11.41554498339899
 20
-115.9994018528878
 10
0.431448266751719
 20
-90.21493683093334
 10
-26.8491965194963
 20
-82.40801044727927
 10
-50.79862911664866
 20
-98.19040946183945
 10
-38.9906755559027
 20
-123.8905970764308
  0
LWPOLYLINE
  5
95
100
AcDbEntity
  8
0
  6
ByLayer
 62
  256
370
   -1
100
AcDbPolyline
 90
   48
 70
    1
 43
0
 10
14.35122708499614
 20
-171.3552054523263
 10
1.826428753020033
 20
-198.6156057931749
 10
-10.69870134215094
 20
-225.8760061340233
 10
1.826092951502297
 20
-253.1364083302798
 10
14.35121900835504
 20
-280.3968105265661
 10
1.826420676374685
 20
-307.6572108674299
 10
-10.69870941879205
 20
-334.917611208263
 10
1.826084874861189
 20
-362.1780134045194
 10
14.35121093171391
 20
-389.4384156008058
 10
1.826412599737831
 20
-416.6988159416543
 10
-27.0158245310008
 20
-408.445007287812
 10
-52.06575014250361
 20
-424.9526184674521
 10
-80.9079884959508
 20
-433.2064228486414
 10
-105.9579116620473
 20
-416.6988079581532
 10
-134.8001487927826
 20
-408.4449993043141
 10
-159.8500744042853
 20
-424.9526104839541
 10
-188.6923127577325
 20
-433.2064148651434
 10
-213.742235923829
 20
-416.6987999746551
 10
-242.5844730545643
 20
-408.4449913208159
 10
-267.6343986660671
 20
-424.9526025004559
 10
-296.4766370195143
 20
-433.2064068816453
 10
-321.5265601856107
 20
-416.6987919911571
 10
-309.0017618536298
 20
-389.4383916503109
 10
-321.5268879104495
 20
-362.1779894540094
 10
-334.0516822041373
 20
-334.9175872577688
 10
-321.5265521089696
 20
-307.6571869169173
 10
-309.0017537769886
 20
-280.3967865760711
 10
-321.5268798338084
 20
-253.1363843797697
 10
-334.0516741274962
 20
-225.875982183529
 10
-321.5265440323792
 20
-198.615581842673
 10
-309.0017457003475
 20
-171.3551815018315
 10
-321.5268717571673
 20
-144.09477930553
 10
-334.0516660508551
 20
-116.8343771092893
 10
-321.5265359557382
 20
-89.57397676843331
 10
-296.4766127896148
 20
-106.0815916588807
 10
-267.6343744361629
 20
-97.827787277708
 10
-242.584448824641
 20
-81.32017609809711
 10
-213.7422116939066
 20
-89.57398475195428
 10
-188.6922885278331
 20
-106.0815996423788
 10
-159.8500501743812
 20
-97.82779526120612
 10
-134.8001245628592
 20
-81.32018408159519
 10
-105.9578874321747
 20
-89.57399273542948
 10
-80.90796426605139
 20
-106.0816076258769
 10
-52.06572591259945
 20
-97.8278032447042
 10
-27.01580030107747
 20
-81.32019206509328
 10
1.826436829656901
 20
-89.57400071895046
 10
-10.69869326550983
 20
-116.8344010597836
 10
1.8261010281434
 20
-144.09480325604
  0
ENDSEC
  0
SECTION
  2
OBJECTS
  0
DICTIONARY
  5
C
330
0
100
AcDbDictionary
281
    1
  3
ACAD_GROUP
350
D
  0
DICTIONARY
  5
D
330
C
100
AcDbDictionary
281
    1
  0
PLOTSETTINGS
  5
96
100
AcDbPlotSettings
  6
1x1
 40
0
 41
0
 42
0
 43
0
  0
ENDSEC
  0
EOF
